<svg width="49" height="49" viewBox="0 0 49 49" fill="none" xmlns="http://www.w3.org/2000/svg">
<g id="CTA">
<rect id="Rectangle 137" x="0.296875" y="0.460205" width="48.5144" height="48.5144" rx="24.2572" fill="#F0F2EE"/>
<g id="shopping_cart">
<mask id="mask0_1757_17616" style="mask-type:alpha" maskUnits="userSpaceOnUse" x="15" y="15" width="20" height="20">
<rect id="Bounding box" x="15.3906" y="15.5537" width="19.4058" height="19.4058" fill="#D9D9D9"/>
</mask>
<g mask="url(#mask0_1757_17616)">
<path id="shopping_cart_2" d="M21.0468 33.3424C20.602 33.3424 20.2215 33.1842 19.905 32.8677C19.5881 32.5508 19.4296 32.1699 19.4296 31.7252C19.4296 31.2805 19.5881 30.8997 19.905 30.5827C20.2215 30.2663 20.602 30.1081 21.0468 30.1081C21.4915 30.1081 21.872 30.2663 22.1885 30.5827C22.5054 30.8997 22.6639 31.2805 22.6639 31.7252C22.6639 32.1699 22.5054 32.5508 22.1885 32.8677C21.872 33.1842 21.4915 33.3424 21.0468 33.3424ZM29.1325 33.3424C28.6878 33.3424 28.3072 33.1842 27.9908 32.8677C27.6738 32.5508 27.5153 32.1699 27.5153 31.7252C27.5153 31.2805 27.6738 30.8997 27.9908 30.5827C28.3072 30.2663 28.6878 30.1081 29.1325 30.1081C29.5772 30.1081 29.958 30.2663 30.275 30.5827C30.5914 30.8997 30.7496 31.2805 30.7496 31.7252C30.7496 32.1699 30.5914 32.5508 30.275 32.8677C29.958 33.1842 29.5772 33.3424 29.1325 33.3424ZM20.3595 20.4052L22.3 24.4481H27.9601L30.1836 20.4052H20.3595ZM19.5913 18.788H31.5178C31.8277 18.788 32.0636 18.926 32.2253 19.202C32.387 19.4786 32.3937 19.7583 32.2455 20.0413L29.3751 25.2162C29.2268 25.4857 29.0279 25.6946 28.7783 25.8429C28.5293 25.9911 28.2565 26.0652 27.9601 26.0652H21.9362L21.0468 27.6824H30.7496V29.2995H21.0468C20.4403 29.2995 19.9821 29.0332 19.6722 28.5006C19.3622 27.9686 19.3488 27.4398 19.6318 26.9142L20.7233 24.9332L17.8125 18.788H16.1953V17.1709H18.8232L19.5913 18.788Z" fill="#232323"/>
</g>
</g>
</g>
</svg>
